<?xml version="1.0" standalone="no"?>
<!DOCTYPE svg PUBLIC "-//W3C//DTD SVG 20010904//EN"
 "http://www.w3.org/TR/2001/REC-SVG-20010904/DTD/svg10.dtd">
<svg version="1.0" xmlns="http://www.w3.org/2000/svg"
 width="707.000000pt" height="631.000000pt" viewBox="0 0 707.000000 631.000000"
 preserveAspectRatio="xMidYMid meet">
<metadata>
Created by potrace 1.14, written by Peter Selinger 2001-2017
</metadata>
<g transform="translate(0.000000,631.000000) scale(0.100000,-0.100000)"
fill="#000000" stroke="none">
<path d="M2395 6190 c-203 -31 -407 -161 -490 -312 -31 -57 -55 -149 -96 -367
-43 -230 -67 -297 -155 -433 -40 -62 -107 -172 -148 -243 l-75 -131 -40 4
c-51 5 -85 -28 -100 -99 -37 -173 10 -177 105 -9 21 38 44 70 51 70 16 0 166
-102 171 -117 8 -28 -101 -65 -240 -82 -62 -7 -72 -13 -83 -49 -9 -30 17 -39
50 -18 76 49 66 47 120 22 68 -31 103 -75 172 -213 96 -194 114 -208 353 -263
204 -47 252 -41 413 51 59 34 110 59 113 56 25 -24 -67 -118 -144 -147 -110
-42 -312 -36 -475 14 -129 40 -144 54 -258 239 -60 98 -111 153 -129 142 -47
-29 77 -422 223 -705 130 -251 138 -268 154 -342 12 -55 17 -129 17 -298 l1
-224 -36 -8 c-20 -4 -84 -25 -142 -47 -96 -37 -183 -79 -482 -236 l-110 -58
-3 29 c-1 16 -15 76 -29 134 -51 198 -36 365 80 920 75 357 87 579 37 685 -37
77 -125 160 -191 179 -136 40 -290 -48 -407 -233 -141 -221 -165 -400 -141
-1026 8 -198 13 -380 13 -405 0 -25 -1 -111 -3 -192 -3 -184 10 -214 74 -172
26 17 119 44 150 43 11 0 -9 -9 -45 -21 -137 -43 -165 -88 -164 -263 0 -117 1
-124 48 -258 71 -207 68 -210 -206 -215 -103 -2 -188 -8 -188 -13 0 -5 79 -9
180 -9 211 0 252 10 270 65 13 39 8 60 -48 224 -31 93 -36 118 -36 206 -1 217
62 263 379 274 132 5 176 10 195 23 14 9 41 19 60 23 19 4 73 27 120 52 231
124 335 175 443 217 150 59 177 65 177 39 0 -42 -41 -245 -59 -290 -10 -27
-24 -75 -31 -108 -16 -72 -11 -65 -51 -72 -58 -9 -108 -41 -177 -115 -162
-173 -240 -244 -317 -289 -139 -80 -156 -87 -255 -98 -164 -18 -265 -63 -258
-115 6 -45 106 -22 280 65 97 49 99 49 195 49 283 0 514 34 569 83 43 37 48
70 29 192 -17 114 -19 201 -6 210 21 12 158 -27 317 -91 240 -96 355 -107 400
-39 39 59 0 94 -159 145 -107 34 -122 42 -138 71 -9 17 -7 17 25 4 18 -8 85
-28 147 -46 63 -17 168 -51 234 -76 177 -66 259 -61 253 15 -4 50 -36 66 -268
137 -211 65 -289 100 -269 120 5 4 144 -43 430 -146 264 -95 320 -109 344 -89
19 16 21 -6 4 -43 -18 -40 -54 -50 -215 -57 -142 -6 -154 -8 -215 -38 -36 -18
-84 -48 -106 -67 -23 -19 -46 -35 -52 -35 -7 0 -64 15 -129 34 -544 160 -539
159 -562 131 -17 -21 -7 -205 14 -264 32 -87 54 -105 252 -203 l184 -91 0 -58
c0 -152 118 -345 285 -467 274 -199 284 -209 357 -364 68 -143 173 -309 233
-371 112 -115 189 -119 550 -32 387 93 485 98 742 35 208 -50 311 -63 443 -55
397 26 652 234 586 479 -29 106 -82 175 -206 268 -182 136 -433 234 -813 317
-103 23 -157 41 -215 71 -69 36 -190 125 -191 141 -1 4 36 12 82 19 87 12 330
51 630 100 100 16 299 48 442 70 311 48 1081 177 1139 190 41 9 76 40 76 66 0
19 15 18 46 -3 23 -15 38 -15 162 -4 182 16 282 31 282 42 0 12 -31 11 -122
-1 -170 -23 -288 -30 -313 -18 -30 14 -33 25 -38 150 -3 100 -17 139 -38 108
-9 -14 -7 -86 7 -216 5 -44 2 -55 -18 -77 -25 -28 21 -19 -618 -122 -124 -20
-412 -67 -640 -105 -228 -37 -462 -75 -520 -84 -58 -9 -195 -30 -305 -47 -315
-49 -281 -51 -344 24 -30 36 -93 121 -141 189 l-87 123 36 7 c20 4 131 19 246
33 171 21 1101 149 1235 170 19 3 82 12 140 19 501 67 847 124 893 147 103 53
61 86 -213 165 -251 72 -282 103 -331 321 -30 130 -119 594 -119 616 0 7 20
18 44 25 193 51 240 514 72 700 -79 88 -225 124 -263 65 -46 -70 -24 -223 187
-1268 95 -472 95 -471 38 -498 -32 -14 -275 -48 -608 -83 -90 -10 -243 -17
-365 -17 -245 -1 -310 10 -438 73 -67 32 -140 54 -207 60 -3 1 12 7 33 15 89
31 122 100 121 247 -1 107 -17 148 -57 148 -20 0 -22 4 -19 39 4 35 -1 45 -39
86 -75 82 -339 256 -401 265 l-38 5 25 37 c36 53 64 64 211 83 238 31 313 13
357 -84 28 -61 28 -236 -1 -456 -44 -332 -41 -385 22 -424 69 -43 424 -99 441
-70 12 19 5 1180 -7 1203 -6 12 -19 31 -30 43 -26 28 -18 39 45 57 71 21 121
58 153 111 54 94 17 234 -72 271 -70 29 -130 16 -205 -47 -95 -80 -106 -263
-19 -339 44 -39 50 -55 23 -62 -10 -3 -137 -2 -283 0 -241 4 -261 6 -220 18
51 15 107 64 116 101 23 88 -28 256 -93 314 -34 29 -38 30 -114 26 -70 -4 -84
-8 -116 -34 -73 -58 -92 -182 -49 -314 27 -83 25 -89 -37 -89 -139 0 -222
-134 -317 -507 -45 -179 -85 -269 -137 -312 -38 -31 -111 -51 -122 -33 -11 18
-51 29 -176 47 l-120 18 1 326 c0 308 1 330 23 401 26 90 44 156 70 273 23 98
47 151 85 186 14 14 26 22 26 19 0 -3 7 -44 15 -90 17 -100 45 -497 45 -646 0
-57 5 -112 11 -123 8 -17 7 -23 -7 -33 -23 -17 -31 -120 -12 -155 38 -70 131
-87 180 -32 39 44 42 129 6 168 -17 18 -18 25 -8 44 10 17 11 126 5 466 -6
369 -5 444 6 447 45 16 1227 56 1651 56 177 0 318 4 333 10 31 12 42 37 37 90
-5 50 -37 62 -154 59 l-83 -2 -3 158 c-1 87 -7 164 -12 170 -6 7 -7 26 -4 43
9 46 -32 64 -139 60 -79 -3 -82 -4 -91 -31 -14 -38 2 -47 84 -47 46 0 61 -3
50 -10 -8 -5 -38 -10 -66 -10 -73 0 -84 -15 -84 -121 1 -146 26 -205 96 -225
32 -9 1 -12 -186 -18 -124 -3 -367 -13 -540 -21 -173 -8 -434 -19 -580 -25
-146 -6 -277 -13 -292 -15 -23 -4 -29 1 -45 32 -21 42 -62 61 -135 62 -51 1
-68 -14 -68 -61 0 -47 -10 -51 -139 -52 -104 -2 -125 -5 -149 -23 -31 -23 -32
-24 -103 -200 -58 -142 -69 -154 -44 -48 44 189 0 254 -140 207 -33 -11 -62
-19 -64 -17 -7 8 51 181 75 223 14 23 57 77 97 120 82 87 146 185 209 317 55
118 57 193 9 330 -18 53 -44 165 -62 270 -16 99 -39 225 -49 279 -11 55 -18
101 -16 103 13 14 57 -172 110 -472 14 -77 39 -181 56 -232 51 -157 44 -196
-69 -363 -85 -126 -181 -322 -181 -368 0 -27 -7 -42 -27 -57 l-26 -22 22 -22
c30 -30 57 -24 53 12 -3 30 -7 27 118 73 233 85 348 197 430 422 50 137 64
236 64 442 0 217 -19 336 -85 527 -84 244 -169 349 -352 436 -158 75 -240 85
-253 32 -6 -26 -18 -32 -29 -16 -18 29 -175 54 -260 41z m206 -36 c63 -21 75
-33 93 -93 l16 -53 -40 45 c-75 85 -238 108 -440 61 -50 -12 4 16 70 35 112
34 215 35 301 5z m231 2 c252 -94 375 -239 463 -541 130 -450 52 -945 -182
-1156 -66 -59 -290 -169 -345 -169 -38 0 79 269 172 395 109 147 122 216 71
366 -15 46 -38 136 -50 199 -54 282 -75 373 -111 490 -21 69 -48 160 -59 203
-24 90 -40 124 -70 151 -20 18 -29 65 -14 79 13 13 64 7 125 -17z m-236 -67
c88 -45 126 -125 190 -400 18 -80 25 -127 20 -153 -9 -48 -139 -192 -221 -246
-123 -80 -265 -80 -265 0 0 47 9 59 84 109 101 69 141 108 127 125 -6 8 -22
11 -37 8 -30 -5 -133 -97 -154 -137 -11 -21 -51 -45 -155 -96 -220 -106 -240
-142 -255 -449 -11 -214 -16 -261 -36 -311 -28 -69 -87 -73 -190 -13 -55 32
-66 47 -97 127 -45 112 -38 145 52 270 98 139 142 259 210 577 78 363 138 483
280 559 123 65 348 81 447 30z m-396 16 c0 -3 -2 -5 -5 -5 -3 0 -5 2 -5 5 0 3
2 5 5 5 3 0 5 -2 5 -5z m565 -138 c23 -81 13 -81 -18 0 -41 106 -42 112 -19
83 12 -14 28 -51 37 -83z m-763 -19 c-70 -102 -98 -185 -157 -463 -69 -319
-101 -405 -204 -550 -89 -123 -99 -175 -56 -279 13 -33 23 -61 22 -63 -2 -1
-19 10 -38 26 -19 15 -53 39 -76 52 l-43 25 59 106 c33 58 95 160 139 226 109
164 134 233 192 537 48 245 80 327 159 406 37 37 38 28 3 -23z m785 -75 c-4
-3 -7 0 -7 7 0 7 3 10 7 7 3 -4 3 -10 0 -14z m-20 -20 c-4 -3 -7 0 -7 7 0 7 3
10 7 7 3 -4 3 -10 0 -14z m33 2 c0 -3 -2 -5 -5 -5 -3 0 -5 2 -5 5 0 3 2 5 5 5
3 0 5 -2 5 -5z m-7 -67 c22 -75 53 -240 77 -403 23 -152 39 -221 76 -332 31
-91 30 -120 -5 -220 -44 -128 -115 -243 -215 -351 -99 -107 -143 -185 -175
-312 -10 -41 -25 -78 -32 -81 -8 -4 -66 -37 -130 -73 -66 -37 -137 -70 -163
-75 -46 -8 -146 4 -226 28 -19 6 -62 16 -94 22 -125 22 -173 66 -255 236 -64
130 -100 178 -155 208 -42 23 -46 35 -12 35 41 0 127 32 137 52 12 22 27 23
48 4 32 -29 120 -66 156 -66 51 0 90 43 105 114 6 30 15 143 20 253 14 316 33
352 236 450 55 26 103 49 108 51 5 3 6 -5 3 -18 -25 -97 113 -129 260 -60 69
32 216 168 247 229 29 55 20 164 -24 311 -11 38 -12 50 -6 50 3 0 11 -24 19
-52z m-318 -313 c-22 -20 -55 -44 -73 -55 l-32 -19 17 26 c21 32 90 83 112 83
10 -1 2 -13 -24 -35z m2679 -765 c14 -5 26 -17 26 -26 0 -14 -8 -16 -52 -10
-29 3 -72 6 -95 6 -36 0 -43 3 -43 20 0 18 7 20 69 20 38 0 81 -4 95 -10z
m-3736 -28 c-16 -36 -73 -133 -93 -157 l-24 -30 -1 40 c0 54 17 112 41 136 18
18 85 28 77 11z m3762 -61 c5 -11 10 -86 10 -170 l0 -151 -47 0 c-130 0 -152
24 -164 171 -11 140 -9 149 39 150 20 0 55 4 77 8 63 13 74 12 85 -8z m-3810
-176 c0 -2 -13 -11 -30 -20 -33 -17 -38 -14 -14 9 14 15 44 22 44 11z m-313
-147 c24 -11 59 -38 79 -61 121 -139 123 -272 9 -847 -106 -537 -113 -649 -54
-865 10 -38 19 -84 19 -102 0 -29 -3 -33 -27 -33 -242 1 -461 -27 -520 -65
-53 -35 -54 -28 -51 247 1 139 -3 379 -10 533 -13 275 -10 471 9 630 33 267
214 533 396 580 55 15 91 11 150 -17z m2282 -24 c34 -13 62 -47 49 -59 -1 -1
-42 -5 -89 -6 l-86 -4 7 31 c4 18 10 37 14 43 10 16 59 14 105 -5z m2065 6
c22 -8 26 -16 26 -49 0 -28 -5 -43 -17 -50 -10 -5 -137 -9 -283 -9 -308 -1
-786 -15 -1290 -38 -195 -9 -371 -17 -390 -18 -33 -1 -35 1 -38 36 -3 36 -3
37 40 42 24 3 124 8 223 11 99 3 439 17 755 31 344 15 614 23 672 19 91 -7 97
-6 107 14 10 19 21 21 91 21 43 0 90 -4 104 -10z m-3822 -62 c25 -35 61 -93
81 -130 69 -123 155 -174 366 -213 251 -46 474 26 511 166 10 35 18 44 57 61
69 31 119 35 144 12 28 -25 22 -123 -20 -289 -58 -234 -78 -437 -52 -535 5
-19 17 -98 25 -176 25 -220 46 -257 167 -296 59 -19 73 -20 91 -9 20 12 130 9
181 -6 17 -4 17 -6 2 -17 -26 -19 -34 -333 -11 -429 23 -98 22 -106 -11 -75
-30 27 -163 83 -408 168 -138 49 -186 70 -158 70 6 0 69 -21 139 -46 269 -95
303 -105 336 -102 42 4 48 31 16 78 -33 49 -87 74 -383 177 -245 85 -522 134
-667 118 l-57 -6 0 198 c0 272 -33 440 -107 538 -83 109 -276 592 -308 768
-11 57 15 48 66 -25z m3591 55 c-13 -2 -35 -2 -50 0 -16 2 -5 4 22 4 28 0 40
-2 28 -4z m-2433 -39 c0 -8 -4 -12 -10 -9 -5 3 -10 10 -10 16 0 5 5 9 10 9 6
0 10 -7 10 -16z m2926 -38 c63 -29 115 -90 146 -169 20 -55 23 -78 23 -212 -1
-161 -17 -231 -65 -293 -48 -60 -120 -84 -120 -39 0 31 -9 38 -31 27 -20 -11
-14 -35 -75 290 -40 214 -50 373 -25 403 20 24 87 21 147 -7z m-2275 -18 c0
-7 2 -25 4 -39 3 -26 2 -27 -73 -34 -42 -4 -85 -11 -94 -16 -16 -9 -18 -5 -18
34 0 23 5 48 12 55 17 17 168 16 169 0z m-199 -52 c-3 -45 -8 -56 -28 -67 -47
-25 -79 -95 -118 -264 -13 -55 -36 -140 -51 -190 -34 -118 -46 -291 -33 -535
11 -238 13 -232 -54 -216 -109 25 -128 48 -139 163 -5 48 -19 135 -31 193 -34
156 -32 387 4 520 30 110 151 400 176 424 14 11 45 16 132 19 63 1 122 4 130
5 12 2 14 -8 12 -52z m209 -403 c5 -602 10 -553 -49 -553 -55 0 -74 17 -74 71
-1 143 -32 593 -49 698 -10 68 -17 126 -15 128 7 7 97 21 143 22 l41 1 3 -367z
m762 298 c79 -72 113 -257 60 -329 -25 -34 -101 -61 -175 -62 -73 0 -102 11
-116 47 -73 184 -34 345 88 369 32 7 33 6 25 -17 -5 -13 -9 -98 -10 -189 l0
-164 28 -10 c23 -8 31 -6 50 12 21 21 22 31 21 165 0 113 -4 148 -17 174 -9
18 -17 34 -17 37 0 11 36 -8 63 -33z m681 15 c96 -40 115 -207 33 -284 l-23
-22 4 35 c6 49 -26 107 -102 188 l-64 69 32 14 c40 17 79 17 120 0z m-729
-141 c7 -94 4 -147 -11 -197 -3 -11 -15 -18 -30 -18 l-24 0 0 149 c0 86 5 162
12 181 l11 33 18 -21 c12 -16 19 -50 24 -127z m637 33 c77 -89 88 -108 88
-150 0 -42 -7 -45 -48 -24 -71 37 -166 199 -135 229 17 18 45 2 95 -55z m-82
-69 c42 -80 118 -142 163 -131 5 2 6 -2 2 -7 -3 -6 -29 -17 -57 -26 -28 -8
-59 -22 -69 -31 -17 -16 -21 -15 -54 11 -47 35 -55 59 -55 163 0 66 4 93 17
112 l17 24 8 -37 c4 -20 17 -55 28 -78z m-1923 -46 c-4 -3 -7 0 -7 7 0 7 3 10
7 7 3 -4 3 -10 0 -14z m-50 -210 c-4 -3 -7 0 -7 7 0 7 3 10 7 7 3 -4 3 -10 0
-14z m1616 -19 c323 -7 328 -7 356 14 31 22 39 19 67 -28 5 -8 11 -279 14
-603 l5 -587 -63 0 c-68 0 -304 50 -351 74 -59 31 -63 103 -18 391 31 206 31
432 -1 497 -47 95 -119 115 -330 93 -212 -22 -254 -40 -288 -122 -8 -18 -33
-52 -57 -75 -49 -50 -85 -145 -137 -362 -17 -69 -48 -176 -71 -240 -36 -103
-44 -117 -68 -122 -37 -9 -51 -23 -51 -49 0 -66 29 -72 62 -12 l24 42 64 -3
c36 -2 126 -11 200 -20 89 -11 188 -16 289 -14 184 3 235 -5 349 -56 109 -49
149 -59 298 -73 167 -16 449 3 934 62 202 24 206 25 230 56 28 36 26 55 -29
327 -64 319 -74 376 -69 381 2 2 27 -104 56 -236 55 -258 76 -315 132 -359 54
-43 84 -55 245 -101 227 -64 271 -89 210 -117 -35 -16 -199 -44 -565 -97 -173
-25 -389 -57 -480 -70 -91 -14 -419 -59 -730 -100 -311 -41 -616 -82 -678 -91
-62 -9 -115 -15 -116 -13 -2 2 -12 20 -23 39 -75 140 -224 304 -310 342 -52
23 -82 19 -147 -22 l-46 -30 0 32 c0 18 9 41 20 53 18 19 22 42 29 182 5 89
11 165 15 171 3 5 23 12 44 16 93 14 151 92 201 268 104 369 172 522 255 565
42 22 155 32 181 16 15 -9 114 -15 348 -19z m-1595 -370 c11 -56 23 -134 27
-175 9 -99 21 -134 56 -164 17 -14 26 -25 21 -25 -19 0 -79 78 -85 111 -4 19
-16 99 -27 179 -11 80 -24 174 -29 210 -6 36 -7 99 -3 140 l7 75 6 -125 c4
-69 16 -170 27 -226z m2922 261 c0 -3 -2 -5 -5 -5 -3 0 -5 2 -5 5 0 3 2 5 5 5
3 0 5 -2 5 -5z m-1 -94 l-1 -56 -13 50 c-19 72 -19 91 0 75 10 -9 15 -30 14
-69z m19 -141 c0 -22 -1 -22 -8 5 -4 17 -8 41 -8 55 0 22 1 22 8 -5 4 -16 8
-41 8 -55z m-1813 -27 c138 -94 270 -191 298 -218 47 -47 36 -105 -26 -136
-64 -33 -131 -108 -171 -192 -38 -82 -56 -97 -108 -97 -71 0 -219 116 -258
203 -39 86 -29 143 67 360 l56 127 36 0 c26 0 55 -13 106 -47z m-226 -98 c-86
-204 -97 -282 -50 -373 28 -54 112 -128 184 -162 110 -53 154 -39 203 65 36
76 86 141 136 176 27 20 29 20 20 3 -6 -10 -22 -30 -36 -43 -94 -88 -143 -264
-80 -288 13 -5 13 -7 2 -14 -20 -13 -118 -11 -231 6 -56 9 -155 20 -221 25
-65 5 -120 10 -122 12 -2 2 10 36 26 76 16 39 38 113 50 164 11 51 28 125 37
163 32 142 101 305 129 305 1 0 -20 -52 -47 -115z m2048 63 c-3 -7 -5 -2 -5
12 0 14 2 19 5 13 2 -7 2 -19 0 -25z m-2253 -57 c35 -29 10 -142 -35 -156 -79
-25 -138 37 -125 130 l7 43 68 -2 c41 -1 75 -7 85 -15z m815 -268 c30 -58 20
-232 -17 -283 -31 -43 -99 -72 -160 -67 -64 5 -75 17 -66 77 8 58 25 91 89
170 100 124 131 145 154 103z m-1304 -24 c18 -7 17 -8 -5 -8 -14 0 -38 6 -55
14 l-30 14 35 -6 c19 -3 44 -10 55 -14z m305 -44 c0 -3 -2 -5 -5 -5 -3 0 -5 2
-5 5 0 3 2 5 5 5 3 0 5 -2 5 -5z m8 -22 c28 -5 33 -9 27 -27 -3 -12 -11 -88
-16 -170 -8 -118 -14 -154 -29 -175 -28 -39 -33 -174 -6 -179 16 -3 18 0 12
31 -6 34 -5 36 51 71 89 56 116 49 236 -63 56 -53 207 -256 207 -280 0 -14
-644 -80 -802 -82 -93 0 -122 4 -223 33 -63 18 -115 36 -115 39 0 11 104 78
158 102 38 17 75 22 192 28 242 11 258 28 220 234 -20 105 -22 138 -17 278 4
87 9 163 13 168 3 6 18 8 33 5 14 -3 41 -9 59 -13z m-970 -58 c190 -33 531
-139 667 -207 52 -26 105 -77 105 -101 0 -27 -35 -19 -212 47 -79 30 -183 66
-233 81 -52 16 -101 37 -116 51 -31 29 -59 31 -59 5 0 -13 9 -21 29 -26 16 -3
37 -15 47 -27 27 -29 70 -48 254 -113 274 -95 380 -146 380 -182 0 -25 -48
-13 -297 73 -136 47 -300 103 -363 125 -82 28 -120 47 -133 64 -15 21 -22 23
-39 14 -19 -10 -18 -12 16 -45 20 -19 36 -39 36 -44 0 -17 72 -46 282 -114
190 -62 258 -92 258 -117 0 -20 -42 -49 -70 -49 -17 0 -72 16 -123 36 -120 47
-177 65 -322 105 -98 27 -126 39 -154 66 -19 18 -45 33 -58 33 -33 0 -29 -15
11 -38 18 -11 42 -37 52 -58 21 -42 42 -53 183 -96 96 -28 130 -56 114 -91 -8
-17 -26 -30 -52 -38 -63 -19 -148 1 -337 76 -139 55 -264 94 -308 95 -12 0 1
63 31 145 26 74 63 256 63 312 l0 33 133 0 c72 0 169 -7 215 -15z m192 -130
c0 -3 -2 -5 -5 -5 -3 0 -5 2 -5 5 0 3 2 5 5 5 3 0 5 -2 5 -5z m903 -117 c-13
-26 -18 -29 -21 -15 -5 26 5 47 23 47 14 0 13 -4 -2 -32z m-2365 -95 c-32 -2
-86 -2 -120 0 -35 2 -9 3 57 3 66 0 94 -1 63 -3z m72 2 c0 -3 -2 -5 -5 -5 -3
0 -5 2 -5 5 0 3 2 5 5 5 3 0 5 -2 5 -5z m-313 -12 c-4 -3 -10 -3 -14 0 -3 4 0
7 7 7 7 0 10 -3 7 -7z m1037 -223 c2 -41 9 -116 16 -167 12 -84 12 -93 -4
-118 -25 -38 -85 -61 -206 -79 -113 -16 -420 -32 -420 -22 0 3 26 19 59 35 79
40 208 139 251 193 103 129 194 209 260 229 39 11 41 9 44 -71z m4655 -14 c-5
-6 -8 12 -8 45 l2 54 7 -45 c4 -25 4 -49 -1 -54z m-4219 -75 c151 -45 281 -84
288 -86 8 -3 -14 -35 -59 -87 -78 -91 -123 -162 -139 -220 -6 -21 -16 -38 -22
-38 -25 0 -325 158 -354 187 -45 44 -65 111 -71 232 l-6 103 44 -4 c24 -3 168
-42 319 -87z m1547 -152 c50 -79 166 -234 211 -281 20 -21 33 -40 30 -44 -18
-17 -890 -137 -965 -132 -74 5 -81 27 -59 188 19 137 13 180 -23 180 -39 0
-56 -62 -59 -222 -4 -178 -3 -177 -100 -159 -87 16 -180 47 -347 117 l-136 57
7 31 c16 75 189 316 228 316 7 0 64 -17 127 -37 156 -50 213 -49 779 13 129
14 237 28 239 30 14 14 35 -3 68 -57z m-807 -286 c-22 -177 -4 -199 153 -189
56 3 127 11 157 16 30 5 107 17 170 25 120 16 226 31 448 65 73 11 137 20 142
20 5 0 35 -23 66 -51 121 -109 193 -143 409 -189 513 -111 854 -293 953 -510
57 -122 37 -217 -67 -321 -124 -124 -288 -179 -537 -180 -154 -1 -172 1 -369
49 -141 35 -160 37 -305 36 -165 0 -167 -1 -530 -84 -276 -63 -369 -55 -461
42 -62 65 -132 177 -215 343 -88 176 -119 212 -274 318 -118 80 -263 218 -305
290 -41 72 -75 176 -75 235 l0 52 38 -16 c227 -98 426 -164 492 -164 64 0 70
13 70 164 0 126 9 183 34 215 17 22 20 -57 6 -166z m-1941 87 c-99 -52 -259
-103 -259 -83 0 15 42 51 75 63 39 15 151 38 190 39 l30 0 -36 -19z"/>
</g>
</svg>
