<?xml version="1.0" standalone="no"?>
<!DOCTYPE svg PUBLIC "-//W3C//DTD SVG 20010904//EN"
 "http://www.w3.org/TR/2001/REC-SVG-20010904/DTD/svg10.dtd">
<svg version="1.0" xmlns="http://www.w3.org/2000/svg"
 width="1215.000000pt" height="1215.000000pt" viewBox="0 0 1215.000000 1215.000000"
 preserveAspectRatio="xMidYMid meet">
<metadata>
Created by potrace 1.14, written by Peter Selinger 2001-2017
</metadata>
<g transform="translate(0.000000,1215.000000) scale(0.100000,-0.100000)"
fill="#000000" stroke="none">
<path d="M950 6078 l0 -6073 1513 1 c831 1 1515 2 1518 3 3 0 5 802 5 1781
l-1 1780 1520 1 c836 0 1558 2 1605 4 103 4 264 14 305 19 17 3 66 7 110 11
44 4 82 8 85 10 3 2 30 6 60 10 30 3 81 11 112 16 71 12 92 16 171 29 215 38
658 171 842 255 17 7 71 32 121 54 50 22 127 60 170 83 81 43 90 48 191 108
32 19 63 37 68 40 24 12 100 66 103 73 2 4 8 7 13 7 10 0 253 179 294 217 11
10 47 41 80 68 61 51 276 263 330 325 36 42 125 148 142 170 35 44 70 90 83
110 8 13 24 35 36 49 42 53 149 224 233 371 14 24 126 250 149 302 65 143 162
405 197 533 9 33 22 83 29 110 28 101 59 250 82 380 8 50 17 101 20 115 2 14
9 66 14 115 6 50 12 106 15 125 27 234 28 857 1 1080 -3 23 -12 101 -22 195
-4 38 -7 60 -19 130 -3 17 -8 50 -11 74 -3 25 -7 47 -9 51 -2 3 -6 26 -10 50
-8 53 -57 271 -79 350 -8 30 -18 66 -22 80 -28 107 -106 333 -173 500 -53 129
-198 429 -251 517 -22 36 -40 67 -40 68 0 20 -251 369 -332 461 -66 75 -296
303 -364 362 -226 193 -507 380 -766 508 -105 53 -280 132 -303 138 -5 2 -23
8 -38 14 -34 14 -276 92 -372 120 -58 17 -174 45 -236 56 -8 1 -39 8 -69 14
-95 20 -192 35 -325 52 -44 6 -93 12 -110 14 -16 3 -70 8 -120 11 -49 4 -103
10 -120 13 -16 3 -1469 7 -3227 9 l-3198 4 0 -6073z m5105 3729 c270 -3 510
-7 535 -11 215 -32 275 -45 425 -93 77 -25 285 -118 295 -132 3 -4 12 -10 20
-13 40 -15 189 -139 265 -221 120 -129 204 -251 279 -402 104 -211 165 -423
201 -700 32 -253 25 -641 -16 -859 -6 -33 -13 -70 -15 -81 -15 -99 -93 -323
-161 -460 -81 -163 -255 -397 -369 -495 -71 -61 -132 -107 -179 -137 -27 -18
-54 -36 -60 -40 -5 -5 -54 -30 -108 -57 -145 -70 -306 -121 -514 -160 -70 -14
-152 -23 -288 -32 -123 -8 -2339 -11 -2362 -3 -16 5 -17 149 -17 1950 l-1
1944 145 5 c151 5 1083 4 1925 -3z"/>
<path d="M8663 1156 l0 -1113 1213 0 c891 -1 1214 2 1217 11 2 6 3 506 3 1111
l-1 1100 -1216 2 -1216 2 0 -1113z"/>
</g>
</svg>
